<?xml version="1.0" standalone="no"?>
<!DOCTYPE svg PUBLIC "-//W3C//DTD SVG 20010904//EN"
 "http://www.w3.org/TR/2001/REC-SVG-20010904/DTD/svg10.dtd">
<svg version="1.0" xmlns="http://www.w3.org/2000/svg"
 width="512.000000pt" height="512.000000pt" viewBox="0 0 512.000000 512.000000"
 preserveAspectRatio="xMidYMid meet">

<g transform="translate(0.000000,512.000000) scale(0.100000,-0.100000)" stroke="none">
<path d="M2315 5099 c-871 -40 -1672 -570 -2060 -1364 -88 -179 -134 -300
-174 -461 -147 -586 -89 -1169 169 -1699 80 -164 213 -368 333 -510 376 -446
922 -751 1507 -840 264 -40 623 -28 890 31 363 81 728 254 994 471 32 26 65
52 72 58 11 7 104 -80 391 -367 208 -207 391 -382 406 -387 36 -14 118 -14
154 0 98 37 149 167 104 264 -27 56 -912 938 -963 960 -47 19 -108 19 -153 1
-18 -8 -76 -54 -127 -102 -751 -704 -1908 -743 -2706 -92 -632 516 -899 1373
-672 2161 138 477 447 891 867 1160 854 547 1996 382 2658 -386 459 -531 615
-1236 424 -1911 -37 -132 -36 -194 4 -254 32 -49 96 -82 160 -82 108 0 165 53
207 190 72 234 103 450 103 715 -1 204 -10 301 -48 490 -180 896 -861 1625
-1745 1870 -250 70 -508 97 -795 84z"/>
<path d="M2992 3418 c-56 -12 -126 -78 -141 -133 -15 -56 -15 -1194 0 -1250
16 -57 84 -120 145 -133 94 -20 184 25 225 113 17 38 19 77 19 645 0 564 -2
608 -19 645 -41 90 -130 134 -229 113z"/>
<path d="M1966 3400 c-42 -13 -90 -49 -115 -86 -13 -18 -122 -293 -244 -611
-247 -648 -245 -642 -192 -729 54 -86 158 -117 250 -75 58 27 82 58 124 163
l37 93 204 0 203 0 37 -93 c43 -106 74 -144 137 -168 91 -35 195 2 243 88 45
81 44 85 -199 726 -121 320 -230 596 -241 612 -47 65 -167 105 -244 80z m93
-779 c11 -32 21 -61 21 -65 0 -3 -22 -6 -50 -6 -27 0 -50 3 -50 6 0 17 43 124
50 124 4 0 17 -26 29 -59z"/>
</g>
</svg>
