<?xml version="1.0" standalone="no"?>
<!DOCTYPE svg PUBLIC "-//W3C//DTD SVG 20010904//EN"
 "http://www.w3.org/TR/2001/REC-SVG-20010904/DTD/svg10.dtd">
<svg version="1.0" xmlns="http://www.w3.org/2000/svg"
 width="30.000000pt" height="30.000000pt" viewBox="0 0 512.000000 512.000000"
 preserveAspectRatio="xMidYMid meet">

<g transform="translate(0.000000,512.000000) scale(0.100000,-0.100000)"
fill="#ffffff" stroke="none">
<path d="M3115 4034 c-44 -23 -1363 -1342 -1386 -1386 -25 -49 -25 -127 0
-176 26 -48 1357 -1378 1394 -1392 37 -13 118 -13 154 1 38 14 90 65 114 111
23 46 25 127 3 171 -9 18 -278 294 -597 615 l-582 582 582 583 c319 320 588
596 597 614 21 41 21 125 0 166 -23 45 -63 86 -106 108 -45 23 -131 25 -173 3z"/>
</g>
</svg>
