<?xml version="1.0" standalone="no"?>
<!DOCTYPE svg PUBLIC "-//W3C//DTD SVG 20010904//EN"
 "http://www.w3.org/TR/2001/REC-SVG-20010904/DTD/svg10.dtd">
<svg version="1.0" xmlns="http://www.w3.org/2000/svg"
 width="30.000000pt" height="30.000000pt" viewBox="0 0 512.000000 512.000000"
 preserveAspectRatio="xMidYMid meet">

<g transform="translate(0.000000,512.000000) scale(0.100000,-0.100000)"
stroke="none">
<path d="M715 4744 c-29 -31 -32 -69 -9 -104 9 -14 402 -411 873 -883 l856
-857 -397 -397 -397 -397 -75 53 c-258 178 -590 220 -887 111 -141 -51 -280
-145 -315 -211 -16 -33 -18 -106 -4 -146 6 -15 91 -108 188 -205 l177 -178
-332 -332 c-357 -358 -376 -383 -390 -496 -15 -129 61 -264 184 -326 75 -38
205 -35 286 5 26 13 168 147 377 355 l335 334 170 -171 c173 -174 219 -208
283 -209 85 0 165 77 243 234 71 144 101 268 102 426 2 215 -55 400 -176 573
l-41 58 397 397 397 397 397 -397 397 -397 -41 -58 c-121 -173 -178 -358 -176
-573 1 -158 31 -282 102 -426 78 -157 158 -234 243 -234 64 1 110 35 283 209
l170 171 335 -334 c209 -208 351 -342 377 -355 81 -40 211 -43 286 -5 123 62
199 197 184 326 -14 113 -33 138 -390 496 l-332 332 177 178 c97 97 182 190
188 205 14 40 12 113 -4 146 -35 66 -174 160 -315 211 -125 46 -244 63 -381
57 -191 -10 -341 -59 -492 -159 l-90 -61 -397 397 -396 396 856 857 c471 472
864 869 873 883 38 58 -1 130 -71 130 -37 0 -60 -22 -910 -872 l-873 -873
-873 873 c-850 850 -873 872 -910 872 -28 0 -44 -7 -62 -26z m491 -2614 c430
-108 691 -553 574 -980 -25 -87 -79 -203 -118 -249 l-27 -32 -555 556 -555
556 30 25 c47 39 183 102 265 124 105 27 279 27 386 0z m3090 0 c85 -21 220
-84 269 -124 l30 -25 -555 -556 -555 -556 -27 32 c-39 46 -93 162 -118 249
-99 359 72 749 402 914 128 64 215 85 359 85 84 1 137 -4 195 -19z m-3344
-827 c54 -54 98 -102 98 -108 0 -6 -147 -157 -327 -337 -347 -345 -351 -348
-428 -334 -40 8 -80 38 -100 76 -20 38 -19 109 1 140 17 26 645 660 654 660 2
0 49 -44 102 -97z m3639 -220 c174 -175 324 -329 333 -343 9 -13 16 -44 16
-68 0 -100 -79 -165 -178 -147 -32 6 -84 53 -364 333 -181 179 -328 331 -328
336 0 11 190 206 200 206 3 0 147 -143 321 -317z"/>
</g>
</svg>
