<?xml version="1.0" standalone="no"?>
<!DOCTYPE svg PUBLIC "-//W3C//DTD SVG 20010904//EN"
 "http://www.w3.org/TR/2001/REC-SVG-20010904/DTD/svg10.dtd">
<svg version="1.0" xmlns="http://www.w3.org/2000/svg"
 width="30.000000pt" height="30.000000pt" viewBox="0 0 512.000000 512.000000"
 preserveAspectRatio="xMidYMid meet">

<g transform="translate(0.000000,512.000000) scale(0.100000,-0.100000)"
stroke="none">
<path d="M1613 4787 c-67 -18 -124 -34 -127 -37 -2 -3 77 -332 177 -730 l182
-725 190 0 190 0 182 725 c100 398 180 727 177 731 -6 11 -272 74 -280 67 -3
-4 -64 -240 -136 -525 -71 -284 -131 -519 -132 -521 -2 -1 -58 217 -125 485
-67 268 -126 505 -132 526 -12 45 -8 45 -166 4z"/>
<path d="M3025 4773 c-110 -39 -217 -130 -264 -221 -90 -177 -56 -388 88 -529
73 -73 157 -111 272 -125 103 -13 144 -34 172 -88 22 -43 18 -106 -9 -144 -39
-53 -135 -81 -187 -55 -12 6 -50 39 -85 72 l-62 62 -108 -108 -107 -108 84
-80 c98 -92 176 -134 275 -148 230 -33 442 109 501 334 41 158 -5 315 -126
430 -78 75 -163 114 -272 125 -47 5 -95 13 -105 19 -54 29 -92 110 -78 166 10
41 64 94 109 106 68 18 103 5 179 -69 l69 -66 107 108 107 107 -80 75 c-52 50
-105 87 -154 112 -68 34 -82 37 -175 40 -77 2 -113 -2 -151 -15z"/>
<path d="M862 3270 c-145 -38 -301 -139 -395 -255 -58 -72 -120 -195 -144
-285 -27 -101 -24 -293 6 -390 89 -286 309 -483 596 -534 l70 -12 -63 -7
c-149 -16 -334 -84 -469 -174 -84 -55 -213 -183 -273 -269 -68 -99 -125 -223
-157 -342 -25 -92 -27 -112 -31 -404 l-4 -308 1052 0 1052 0 -4 308 c-4 292
-6 312 -31 404 -47 179 -134 333 -256 462 -175 182 -365 280 -626 321 -44 7
-67 13 -51 14 17 1 59 8 95 17 402 100 651 518 546 919 -66 255 -282 469 -539
535 -105 27 -271 27 -374 0z"/>
<path d="M3882 3270 c-145 -38 -301 -139 -395 -255 -58 -72 -120 -195 -144
-285 -27 -101 -24 -293 6 -390 89 -286 309 -483 596 -534 l70 -12 -63 -7
c-149 -16 -334 -84 -469 -174 -84 -55 -213 -183 -273 -269 -68 -99 -125 -223
-157 -342 -25 -92 -27 -112 -31 -404 l-4 -308 1052 0 1052 0 -4 308 c-4 292
-6 312 -31 404 -47 179 -134 333 -256 462 -175 182 -365 280 -626 321 -44 7
-67 13 -51 14 17 1 59 8 95 17 402 100 651 518 546 919 -66 255 -282 469 -539
535 -105 27 -271 27 -374 0z"/>
</g>
</svg>
