<?xml version="1.0" standalone="no"?>
<!DOCTYPE svg PUBLIC "-//W3C//DTD SVG 20010904//EN"
 "http://www.w3.org/TR/2001/REC-SVG-20010904/DTD/svg10.dtd">
<svg version="1.0" xmlns="http://www.w3.org/2000/svg"
 width="512.000000pt" height="512.000000pt" viewBox="0 0 512.000000 512.000000"
 preserveAspectRatio="xMidYMid meet">

<g transform="translate(0.000000,512.000000) scale(0.100000,-0.100000)"
fill="#ffffff" stroke="none">
<path d="M1585 4813 c-55 -29 -75 -56 -197 -274 l-123 -218 -310 -3 c-291 -4
-314 -5 -380 -27 -225 -74 -393 -217 -490 -416 -87 -178 -80 -47 -80 -1570 0
-1523 -7 -1392 80 -1570 98 -202 270 -346 495 -417 l75 -23 1905 0 1905 0 75
23 c226 71 397 216 495 417 52 107 74 188 82 301 5 76 4 87 -21 138 -30 61
-80 99 -147 111 -110 20 -228 -83 -229 -200 0 -57 -26 -149 -55 -200 -36 -60
-116 -132 -183 -163 l-57 -27 -1865 0 -1865 0 -57 27 c-109 51 -193 151 -223
264 -23 88 -23 2550 0 2638 30 113 114 213 223 264 l57 27 370 5 c362 5 371 6
413 28 49 26 64 48 208 304 l99 178 775 0 775 0 102 -183 c142 -254 155 -272
205 -299 42 -23 51 -23 413 -28 l370 -5 57 -27 c96 -45 176 -130 216 -232 15
-37 17 -126 22 -843 l5 -801 30 -44 c81 -116 249 -116 330 0 l30 44 0 821 c0
927 5 868 -80 1042 -96 199 -265 342 -490 416 -66 22 -89 23 -380 27 l-310 3
-123 218 c-67 119 -132 226 -144 238 -62 56 -6 53 -1030 53 -840 -1 -946 -3
-973 -17z"/>
<path d="M3879 3497 c-90 -34 -139 -102 -139 -193 0 -60 29 -114 83 -158 l39
-31 133 0 133 0 39 31 c116 94 110 253 -11 329 -44 26 -58 30 -145 32 -63 2
-109 -1 -132 -10z"/>
<path d="M2366 3414 c-364 -66 -673 -302 -831 -637 -71 -150 -96 -255 -102
-437 -6 -166 6 -263 48 -391 140 -429 516 -731 969 -780 342 -37 700 99 940
358 128 139 217 303 272 500 19 67 22 104 22 268 0 174 -2 198 -27 288 -99
368 -378 667 -732 786 -178 60 -385 76 -559 45z m342 -399 c48 -10 116 -34
179 -66 176 -86 309 -239 370 -426 35 -105 43 -278 19 -386 -48 -213 -202
-407 -400 -502 -110 -52 -185 -68 -316 -68 -131 0 -206 16 -316 68 -196 94
-342 273 -396 488 -17 66 -19 102 -16 201 8 191 64 332 186 467 60 66 189 155
272 188 126 50 279 63 418 36z"/>
</g>
</svg>
