<?xml version="1.0" standalone="no"?>
<!DOCTYPE svg PUBLIC "-//W3C//DTD SVG 20010904//EN"
 "http://www.w3.org/TR/2001/REC-SVG-20010904/DTD/svg10.dtd">
<svg version="1.0" xmlns="http://www.w3.org/2000/svg"
 width="26.000000pt" height="26.000000pt" viewBox="0 0 512.000000 512.000000"
 preserveAspectRatio="xMidYMid meet">

<g transform="translate(0.000000,512.000000) scale(0.100000,-0.100000)"
fill="rgba(255,255,255,0.5)" stroke="none">
<path d="M2350 4469 c-673 -83 -1233 -481 -1520 -1081 -84 -176 -129 -318
-167 -528 -24 -133 -24 -467 0 -600 38 -210 83 -352 167 -528 192 -400 501
-709 901 -901 962 -461 2108 -53 2565 914 246 522 244 1121 -6 1643 -193 401
-502 710 -901 901 -177 84 -322 131 -524 167 -107 19 -408 27 -515 13z m517
-448 c450 -100 828 -393 1027 -796 105 -213 145 -372 153 -610 9 -255 -27
-445 -127 -667 -193 -433 -579 -743 -1058 -851 -131 -29 -450 -31 -585 -4
-537 109 -968 491 -1137 1008 -93 284 -93 634 0 918 172 525 615 912 1160
1011 143 26 430 22 567 -9z"/>
<path d="M2545 3730 c-259 -23 -458 -179 -539 -422 -47 -138 -32 -233 49 -313
56 -57 102 -75 186 -75 99 1 191 66 225 159 38 104 53 131 86 151 64 39 139
17 177 -51 52 -92 5 -236 -140 -429 -121 -161 -182 -281 -220 -428 -35 -137
-20 -244 43 -309 65 -67 208 -93 293 -54 53 24 121 100 133 148 5 21 17 70 26
108 23 99 61 170 179 332 173 236 218 347 219 538 2 345 -216 603 -542 644
-46 6 -87 10 -90 10 -3 -1 -41 -5 -85 -9z"/>
<path d="M2472 1784 c-161 -80 -198 -297 -72 -422 56 -57 105 -77 190 -77 89
0 136 21 194 85 50 56 68 102 69 177 1 112 -79 224 -181 253 -67 18 -143 12
-200 -16z"/>
</g>
</svg>
