<?xml version="1.0" standalone="no"?>
<!DOCTYPE svg PUBLIC "-//W3C//DTD SVG 20010904//EN"
 "http://www.w3.org/TR/2001/REC-SVG-20010904/DTD/svg10.dtd">
<svg version="1.0" xmlns="http://www.w3.org/2000/svg"
 width="512.000000pt" height="512.000000pt" viewBox="0 0 512.000000 512.000000"
 preserveAspectRatio="xMidYMid meet">

<g transform="translate(0.000000,512.000000) scale(0.100000,-0.100000)"
fill="#ffffff" stroke="none">
<path d="M1475 5100 c-112 -38 -207 -130 -241 -236 -9 -27 -53 -246 -98 -485
l-81 -434 -375 -5 -375 -5 -67 -33 c-107 -52 -183 -152 -208 -270 -7 -31 -10
-614 -8 -1692 l3 -1645 32 -67 c40 -85 106 -151 191 -191 l67 -32 1675 0 1675
0 58 23 c81 33 166 114 203 194 28 62 29 67 32 256 l3 192 42 -7 c23 -5 85 -8
137 -8 84 0 102 4 153 29 73 35 148 109 180 178 38 81 632 3250 623 3325 -10
85 -43 158 -98 219 -98 107 15 80 -1741 410 -864 162 -1606 297 -1647 300 -58
3 -89 0 -135 -16z m1710 -525 c781 -146 1439 -272 1463 -280 89 -29 160 -116
177 -216 5 -26 -57 -377 -220 -1250 -125 -668 -230 -1217 -234 -1221 -3 -4
-96 117 -206 267 l-200 274 -5 758 -5 758 -28 58 c-37 74 -110 147 -184 184
l-58 28 -1187 3 c-654 1 -1188 6 -1188 11 0 37 134 710 146 735 50 99 179 173
279 160 17 -2 669 -123 1450 -269z m371 -904 c54 -25 111 -83 138 -140 l21
-46 3 -1248 c1 -796 -1 -1248 -7 -1245 -8 2 -793 735 -1128 1051 l-72 69 -215
-131 c-117 -72 -218 -131 -222 -131 -5 0 -158 149 -339 330 -181 182 -333 330
-338 330 -4 0 -257 -164 -563 -365 -305 -201 -557 -365 -560 -365 -2 0 -3 384
-2 853 l3 852 27 50 c24 45 52 78 100 114 54 41 28 40 1603 40 1452 1 1512 0
1551 -18z"/>
<path d="M2830 3410 c-331 -62 -486 -429 -300 -708 176 -263 574 -264 749 -2
198 297 13 685 -340 713 -35 3 -84 2 -109 -3z"/>
</g>
</svg>
