<?xml version="1.0" standalone="no"?>
<!DOCTYPE svg PUBLIC "-//W3C//DTD SVG 20010904//EN"
 "http://www.w3.org/TR/2001/REC-SVG-20010904/DTD/svg10.dtd">
<svg version="1.0" xmlns="http://www.w3.org/2000/svg"
 width="512.000000pt" height="489.000000pt" viewBox="0 0 512.000000 489.000000"
 preserveAspectRatio="xMidYMid meet">

<g transform="translate(0.000000,489.000000) scale(0.100000,-0.100000)"
fill="#ffffff" stroke="none">
<path d="M2450 4697 c-61 -17 -110 -48 -155 -98 -62 -69 -79 -118 -85 -248
l-5 -113 -85 -24 c-116 -33 -327 -140 -430 -218 -113 -84 -223 -201 -298 -315
-70 -107 -113 -204 -150 -340 l-26 -96 -6 -740 c-6 -830 -1 -777 -80 -849 -32
-28 -72 -46 -216 -92 -202 -66 -257 -97 -291 -164 -31 -61 -87 -442 -74 -500
15 -69 57 -127 114 -160 l52 -30 648 0 c509 0 648 -3 651 -13 2 -6 8 -43 14
-81 25 -159 137 -309 284 -380 200 -96 416 -62 578 90 95 90 146 193 165 336
l6 48 645 0 c704 0 684 -2 748 58 39 37 76 118 76 167 0 22 -14 129 -30 239
-43 288 -48 294 -302 386 -87 32 -173 69 -192 84 -19 14 -46 49 -60 78 l-26
52 0 676 c0 405 -4 709 -10 760 -16 127 -45 223 -105 346 -165 339 -483 583
-891 684 l-41 10 -5 103 c-5 122 -32 191 -98 257 -81 81 -214 117 -320 87z
m151 -256 c26 -27 29 -36 29 -95 l0 -66 -95 0 -95 0 0 49 c0 65 17 109 49 126
42 23 79 18 112 -14z m164 -416 c131 -21 228 -50 332 -100 131 -62 229 -133
331 -240 94 -100 135 -161 187 -282 64 -150 65 -157 65 -925 0 -762 0 -765 61
-879 66 -123 173 -196 389 -268 52 -17 100 -35 106 -39 9 -6 54 -284 54 -334
0 -17 -90 -18 -1755 -18 -965 0 -1755 3 -1755 8 1 20 49 334 52 337 2 1 75 26
163 55 88 28 182 64 209 78 69 38 145 116 184 189 61 116 62 127 62 885 0 752
0 755 60 905 129 322 453 561 850 628 104 18 297 18 405 0z m52 -3360 c-24
-172 -203 -284 -367 -230 -62 20 -132 81 -161 137 -21 41 -40 124 -31 133 3 3
131 5 285 5 l280 0 -6 -45z"/>
</g>
</svg>
