<?xml version="1.0" standalone="no"?>
<!DOCTYPE svg PUBLIC "-//W3C//DTD SVG 20010904//EN"
 "http://www.w3.org/TR/2001/REC-SVG-20010904/DTD/svg10.dtd">
<svg version="1.0" xmlns="http://www.w3.org/2000/svg"
 width="398.000000pt" height="202.000000pt" viewBox="0 0 398.000000 202.000000"
 preserveAspectRatio="xMidYMid meet">

<g transform="translate(0.000000,202.000000) scale(0.100000,-0.100000)"
fill="#ffffff" stroke="none">
<path d="M3778 1888 c-77 -60 -240 -229 -391 -407 -73 -85 -141 -164 -152
-177 -19 -21 -29 -22 -239 -28 l-219 -5 20 22 c10 12 52 60 93 107 41 47 116
131 167 186 83 91 110 134 84 134 -11 0 -101 -95 -275 -293 -77 -86 -146 -157
-155 -157 -30 0 -296 -19 -351 -25 l-55 -6 0 63 c0 106 -59 168 -161 168 -48
0 -149 -35 -199 -70 -68 -47 -141 -134 -164 -196 -12 -30 -43 -83 -70 -116
-91 -112 -140 -236 -126 -320 14 -82 98 -138 185 -123 60 10 158 61 230 119
65 54 65 54 155 61 50 4 125 17 168 30 42 12 77 21 77 19 0 -1 -69 -94 -153
-206 -165 -221 -349 -491 -351 -516 0 -9 6 -18 16 -20 12 -2 27 16 52 65 86
162 552 783 750 999 l41 45 213 -3 212 -3 -76 -100 c-90 -119 -119 -145 -154
-139 -62 12 -199 -72 -251 -154 -34 -54 -38 -98 -9 -107 26 -8 61 12 145 82
114 94 107 91 83 34 -25 -59 -18 -97 22 -119 50 -26 192 9 355 88 116 57 180
105 153 115 -9 4 -32 -4 -55 -18 -132 -83 -337 -161 -409 -155 -32 2 -40 7
-42 27 -5 34 28 101 55 112 18 6 23 16 23 41 0 29 16 48 138 165 126 122 140
133 175 133 26 0 37 4 37 15 0 9 -9 15 -21 15 -16 0 27 50 169 195 188 192
344 369 365 412 7 16 7 27 -3 38 -20 24 -45 18 -102 -27z m72 -6 c0 -21 -552
-602 -571 -602 -17 0 6 31 123 166 171 197 286 319 362 385 67 57 86 68 86 51z
m-1614 -486 c31 -31 34 -39 34 -94 0 -68 3 -66 -92 -77 -43 -5 -58 -10 -58
-22 0 -13 10 -15 65 -11 46 4 65 2 65 -6 0 -43 -125 -250 -183 -304 -25 -24
-25 -24 -89 -8 -124 32 -190 105 -186 206 3 55 3 55 66 102 34 26 85 55 112
65 34 12 50 23 50 35 0 10 -6 18 -12 18 -20 0 -120 -49 -155 -76 -41 -31 -42
-20 -2 37 73 104 186 168 298 169 47 0 57 -4 87 -34z m443 -183 c-107 -136
-218 -262 -243 -275 -56 -31 -187 -68 -263 -75 l-75 -6 53 69 c48 63 139 235
139 263 0 6 1 11 3 12 11 4 286 27 336 28 59 1 62 0 50 -16z m-919 -176 c1
-77 88 -165 193 -194 l60 -17 -41 -36 c-22 -20 -69 -52 -104 -70 -52 -29 -74
-34 -126 -35 -59 0 -66 2 -93 33 -24 26 -29 41 -29 82 0 27 9 73 20 102 23 61
100 179 112 172 4 -3 8 -20 8 -37z m1180 -80 c0 -2 -39 -37 -87 -78 -134 -116
-172 -135 -139 -72 21 42 90 101 150 129 45 21 76 30 76 21z"/>
<path d="M576 1449 c-33 -11 -78 -33 -101 -49 -68 -47 -141 -134 -164 -196
-12 -30 -43 -83 -70 -116 -91 -112 -140 -236 -126 -320 14 -82 98 -138 185
-123 60 10 158 61 230 119 64 53 66 54 150 60 134 11 321 68 334 102 9 24 -19
27 -61 6 -63 -32 -172 -62 -251 -69 l-74 -6 53 69 c100 132 171 322 154 413
-10 56 -41 97 -85 115 -53 21 -102 20 -174 -5z m190 -53 c30 -30 34 -40 34
-88 0 -65 -21 -141 -62 -223 -35 -69 -104 -169 -141 -203 -25 -24 -25 -24 -89
-8 -124 32 -190 105 -186 206 3 55 3 55 66 102 34 26 85 55 112 65 34 12 50
23 50 35 0 10 -6 18 -12 18 -20 0 -120 -49 -155 -76 -41 -31 -42 -20 -2 37 73
104 186 168 298 169 47 0 57 -4 87 -34z m-476 -359 c1 -77 88 -165 193 -194
l60 -17 -41 -36 c-22 -20 -69 -52 -104 -70 -52 -29 -74 -34 -126 -35 -59 0
-66 2 -93 33 -24 26 -29 41 -29 82 0 27 9 73 20 102 23 61 100 179 112 172 4
-3 8 -20 8 -37z"/>
<path d="M1190 921 c-122 -5 -135 -8 -138 -25 -4 -17 1 -18 49 -13 30 4 116 7
192 7 126 0 138 2 135 18 -4 20 -30 21 -238 13z"/>
</g>
</svg>
