<?xml version="1.0" standalone="no"?>
<!DOCTYPE svg PUBLIC "-//W3C//DTD SVG 20010904//EN"
 "http://www.w3.org/TR/2001/REC-SVG-20010904/DTD/svg10.dtd">
<svg version="1.0" xmlns="http://www.w3.org/2000/svg"
 width="512.000000pt" height="512.000000pt" viewBox="0 0 512.000000 512.000000"
 preserveAspectRatio="xMidYMid meet">

<g transform="translate(0.000000,512.000000) scale(0.100000,-0.100000)"
fill="#ffffff" stroke="none">
<path d="M3816 5110 c-112 -29 -69 12 -1887 -1808 -1648 -1649 -1737 -1740
-1763 -1800 -24 -56 -36 -128 -97 -590 -46 -342 -69 -547 -66 -583 14 -167
159 -312 325 -326 38 -3 237 19 587 66 523 69 530 71 600 105 66 33 165 130
1806 1773 1655 1657 1737 1741 1765 1803 25 57 29 77 29 160 0 87 -3 101 -33
165 -31 65 -64 101 -485 522 -417 417 -457 454 -520 483 -74 35 -188 48 -261
30z m429 -870 l330 -330 -255 -255 -255 -255 -332 332 -333 333 252 252 c139
139 255 253 258 253 3 0 154 -148 335 -330z m-860 -860 l330 -330 -1215 -1214
-1215 -1215 -350 -45 c-454 -58 -410 -55 -408 -31 1 11 23 182 48 380 l47 360
1211 1213 c667 666 1214 1212 1217 1212 3 0 154 -149 335 -330z"/>
</g>
</svg>
