<?xml version="1.0" standalone="no"?>
<!DOCTYPE svg PUBLIC "-//W3C//DTD SVG 20010904//EN"
 "http://www.w3.org/TR/2001/REC-SVG-20010904/DTD/svg10.dtd">
<svg version="1.0" xmlns="http://www.w3.org/2000/svg"
 width="512.000000pt" height="512.000000pt" viewBox="0 0 512.000000 512.000000"
 preserveAspectRatio="xMidYMid meet">

<g transform="translate(0.000000,512.000000) scale(0.100000,-0.100000)"
fill="#ffffff" stroke="none">
<path d="M4750 5109 c-138 -41 -4591 -1514 -4615 -1527 -142 -73 -177 -204
-79 -293 18 -16 416 -186 1084 -464 839 -348 1066 -446 1110 -479 111 -84 102
-67 575 -1206 391 -944 441 -1059 475 -1092 87 -85 214 -48 279 81 20 38 1510
4549 1532 4634 32 130 -39 276 -160 330 -52 23 -151 31 -201 16z m-1324 -1458
l-1018 -1018 -40 22 c-22 12 -428 184 -903 381 -476 198 -865 361 -865 364 0
3 80 32 178 63 422 139 2998 988 3307 1092 187 62 344 114 350 114 5 1 -448
-457 -1009 -1018z m611 -1134 c-348 -1054 -634 -1917 -637 -1917 -3 0 -167
390 -365 867 -198 476 -370 882 -382 902 l-22 36 1017 1017 c559 559 1017
1016 1019 1015 1 -2 -282 -865 -630 -1920z"/>
</g>
</svg>
