<?xml version="1.0" standalone="no"?>
<!DOCTYPE svg PUBLIC "-//W3C//DTD SVG 20010904//EN"
 "http://www.w3.org/TR/2001/REC-SVG-20010904/DTD/svg10.dtd">
<svg version="1.0" xmlns="http://www.w3.org/2000/svg"
 width="512.000000pt" height="512.000000pt" viewBox="0 0 512.000000 512.000000"
 preserveAspectRatio="xMidYMid meet">

<g transform="translate(0.000000,512.000000) scale(0.100000,-0.100000)"
fill="#ffffff" stroke="none">
<path d="M1616 5105 c-72 -25 -108 -68 -273 -321 -168 -256 -201 -324 -190
-390 l6 -33 -320 -106 c-275 -92 -327 -113 -377 -149 -67 -50 -116 -121 -143
-207 -18 -59 -19 -120 -19 -1713 0 -1613 0 -1655 20 -1730 28 -112 73 -190
160 -276 86 -87 164 -132 276 -160 75 -20 117 -20 1798 -20 1906 0 1793 -4
1936 66 56 27 94 57 150 113 86 88 132 166 160 277 20 75 20 117 20 1730 0
1617 0 1653 -20 1716 -11 35 -37 88 -58 118 -66 96 -117 122 -455 236 l-302
101 -6 64 c-7 80 -15 96 -194 369 -160 245 -180 271 -240 303 l-40 22 -925 2
c-769 2 -932 0 -964 -12z m1207 -620 c-141 -185 -260 -332 -263 -328 -22 25
-500 655 -500 658 0 3 229 5 510 5 l509 0 -256 -335z m-773 -155 c183 -239
336 -440 341 -445 5 -7 -94 -99 -266 -248 -151 -130 -278 -237 -283 -237 -13
0 -385 1008 -376 1022 78 129 237 359 244 352 4 -5 158 -205 340 -444z m1498
275 c63 -96 116 -183 118 -192 2 -10 -80 -244 -184 -520 l-188 -503 -276 238
c-152 130 -276 242 -275 249 2 13 679 903 687 903 3 0 56 -79 118 -175z
m-2118 -980 c164 -439 164 -440 214 -490 77 -76 182 -97 274 -55 24 11 136
100 249 197 113 98 216 186 229 196 l24 19 0 -1596 0 -1596 -797 2 -798 3 -57
28 c-64 32 -111 80 -142 146 l-21 46 -3 1647 -2 1647 24 28 c20 23 75 45 328
129 166 56 306 99 309 95 3 -3 79 -204 169 -446z m3063 225 l27 -31 -2 -1647
-3 -1647 -21 -46 c-31 -66 -78 -114 -142 -146 l-57 -28 -787 -3 -788 -2 0
1595 0 1595 227 -196 c125 -108 245 -205 267 -215 25 -11 64 -19 99 -19 104 0
181 48 226 144 16 33 98 244 181 467 l152 407 296 -99 c254 -84 301 -103 325
-129z"/>
<path d="M3005 2576 c-37 -16 -70 -52 -84 -89 -6 -16 -11 -83 -11 -149 0 -101
3 -129 20 -163 40 -83 145 -109 220 -55 50 36 60 72 60 222 0 157 -11 189 -80
225 -49 26 -81 28 -125 9z"/>
<path d="M3031 1789 c-44 -9 -80 -37 -102 -79 -16 -29 -19 -57 -19 -160 0
-111 3 -131 23 -170 54 -107 206 -107 259 0 23 46 26 286 4 328 -33 64 -97 95
-165 81z"/>
<path d="M3016 990 c-16 -5 -40 -19 -54 -32 -43 -40 -52 -77 -52 -210 0 -101
3 -129 20 -163 53 -109 208 -112 262 -4 15 27 18 60 18 168 0 158 -14 197 -85
231 -44 21 -64 23 -109 10z"/>
</g>
</svg>
