<?xml version="1.0" standalone="no"?>
<!DOCTYPE svg PUBLIC "-//W3C//DTD SVG 20010904//EN"
 "http://www.w3.org/TR/2001/REC-SVG-20010904/DTD/svg10.dtd">
<svg version="1.0" xmlns="http://www.w3.org/2000/svg"
 width="1024.000000pt" height="1024.000000pt" viewBox="0 0 1024.000000 1024.000000"
 preserveAspectRatio="xMidYMid meet">

<g transform="translate(0.000000,1024.000000) scale(0.100000,-0.100000)"
fill="#ffffff" stroke="none">
<path d="M3765 8953 c-11 -2 -615 -202 -1341 -444 -874 -291 -1337 -450 -1367
-469 -106 -67 -176 -174 -197 -300 -8 -45 -10 -411 -8 -1170 3 -996 5 -1110
20 -1152 48 -137 166 -247 303 -283 49 -12 136 -15 507 -15 l447 0 3 -1552 3
-1553 28 -98 c86 -308 309 -527 617 -609 l85 -23 2255 0 2255 0 85 23 c169 44
318 134 421 253 108 125 158 215 197 358 l27 96 3 1553 3 1552 438 0 c254 0
461 4 492 10 109 21 210 89 273 185 75 112 70 24 74 1255 2 706 -1 1128 -7
1170 -20 127 -108 253 -217 311 -27 15 -645 225 -1374 468 -1438 478 -1368
459 -1495 425 -112 -28 -199 -94 -260 -194 -43 -71 -52 -108 -64 -255 -31
-389 -273 -688 -636 -786 -114 -31 -316 -31 -430 0 -362 98 -606 398 -635 783
-11 141 -15 157 -52 232 -55 110 -168 197 -289 225 -44 11 -127 13 -164 4z
m-210 -1095 c141 -326 382 -602 684 -783 609 -365 1375 -318 1934 118 90 71
237 220 312 317 70 91 145 220 199 345 26 61 49 111 50 112 1 2 405 -132 897
-296 l894 -298 3 -701 2 -701 -477 -3 -478 -3 -70 -33 c-110 -52 -191 -143
-233 -260 -15 -43 -17 -190 -19 -1794 l-3 -1748 -2130 0 -2130 0 0 1708 c0
1120 -4 1729 -10 1772 -26 164 -144 296 -309 346 -36 11 -141 14 -504 14
l-457 0 2 702 3 701 890 298 c490 164 893 298 896 298 3 1 27 -50 54 -111z"/>
</g>
</svg>
