<?xml version="1.0" standalone="no"?>
<!DOCTYPE svg PUBLIC "-//W3C//DTD SVG 20010904//EN"
 "http://www.w3.org/TR/2001/REC-SVG-20010904/DTD/svg10.dtd">
<svg version="1.0" xmlns="http://www.w3.org/2000/svg"
 width="512.000000pt" height="512.000000pt" viewBox="0 0 512.000000 512.000000"
 preserveAspectRatio="xMidYMid meet">

<g transform="translate(0.000000,512.000000) scale(0.100000,-0.100000)"
fill="#ffffff" stroke="none">
<path d="M492 5109 c-45 -13 -109 -80 -122 -127 -7 -28 -9 -605 -8 -1883 l3
-1844 24 -38 c13 -21 42 -50 64 -65 l41 -27 760 -3 c844 -3 810 -5 875 62 94
97 61 259 -64 317 -37 17 -74 19 -530 19 l-490 0 357 357 357 357 148 -146
c151 -148 180 -168 253 -168 84 0 78 -5 652 568 l548 546 347 -345 c317 -315
352 -347 395 -359 95 -25 194 16 234 96 18 38 19 77 19 1300 l0 1260 -27 41
c-15 22 -44 51 -65 64 l-38 24 -1850 2 c-1149 1 -1862 -2 -1883 -8z m3468
-1246 l0 -857 -247 246 c-256 254 -274 268 -353 268 -84 0 -78 5 -652 -568
l-548 -546 -147 146 c-151 148 -180 168 -253 168 -83 0 -84 -1 -553 -468
l-447 -446 0 1457 0 1457 1600 0 1600 0 0 -857z"/>
<path d="M1612 4300 c-109 -29 -187 -74 -272 -160 -87 -86 -131 -163 -160
-276 -36 -141 -18 -294 52 -427 42 -81 164 -203 245 -245 133 -70 286 -88 427
-52 113 29 190 73 276 160 87 86 131 163 160 276 36 141 18 294 -52 427 -42
81 -164 203 -245 245 -132 69 -291 88 -431 52z m258 -414 c59 -39 85 -89 85
-166 0 -78 -26 -127 -88 -168 -56 -37 -153 -39 -210 -3 -76 47 -111 140 -88
229 14 51 75 117 123 131 53 16 135 6 178 -23z"/>
<path d="M3290 2309 c-26 -8 -116 -92 -358 -332 -178 -177 -333 -338 -345
-357 -32 -51 -31 -151 2 -203 47 -76 140 -111 231 -87 37 10 68 35 192 157
l147 146 3 -350 3 -350 27 -40 c41 -62 90 -88 168 -88 78 0 127 26 168 88 l27
40 3 350 3 350 147 -146 c124 -122 155 -147 192 -157 159 -43 292 91 250 250
-11 40 -47 80 -333 368 -177 178 -337 332 -354 343 -38 24 -124 33 -173 18z"/>
<path d="M2092 789 c-47 -14 -109 -80 -122 -129 -7 -27 -10 -127 -8 -284 l3
-243 27 -40 c15 -22 44 -51 65 -64 l38 -24 1265 0 1265 0 38 24 c21 13 50 42
65 64 l27 41 0 266 0 266 -27 41 c-41 62 -90 88 -168 88 -78 0 -127 -26 -168
-88 -25 -38 -27 -49 -30 -174 l-4 -133 -998 0 -998 0 -4 133 c-3 118 -5 136
-27 170 -47 76 -151 113 -239 86z"/>
</g>
</svg>
