<?xml version="1.0" standalone="no"?>
<!DOCTYPE svg PUBLIC "-//W3C//DTD SVG 20010904//EN"
 "http://www.w3.org/TR/2001/REC-SVG-20010904/DTD/svg10.dtd">
<svg version="1.0" xmlns="http://www.w3.org/2000/svg"
 width="512.000000pt" height="512.000000pt" viewBox="0 0 512.000000 512.000000"
 preserveAspectRatio="xMidYMid meet">

<g transform="translate(0.000000,512.000000) scale(0.100000,-0.100000)"
fill="#ffffff" stroke="none">
<path d="M1302 5109 c-68 -21 -132 -111 -132 -188 0 -13 61 -287 135 -610 148
-638 159 -672 243 -759 59 -60 120 -96 197 -116 200 -53 405 41 494 227 46 95
315 1225 307 1286 -8 57 -44 112 -93 142 -57 36 -154 34 -210 -3 -22 -15 -50
-42 -61 -60 -12 -20 -74 -259 -158 -608 -75 -316 -141 -581 -147 -587 -14 -18
-35 -16 -46 5 -5 10 -69 274 -141 587 -84 361 -139 582 -152 603 -43 71 -150
108 -236 81z"/>
<path d="M3215 5111 c-251 -55 -425 -266 -425 -516 0 -152 61 -279 184 -383
97 -82 220 -127 388 -141 107 -9 162 -31 189 -75 36 -59 15 -117 -54 -156 -34
-20 -48 -22 -111 -16 -85 8 -207 36 -307 71 -91 31 -143 32 -200 2 -118 -63
-144 -222 -50 -316 30 -30 59 -45 147 -74 254 -84 489 -106 626 -59 140 49
253 149 316 280 90 190 57 400 -88 555 -107 115 -231 170 -421 187 -153 13
-219 51 -219 125 1 73 61 125 146 125 71 0 184 -23 301 -60 112 -36 147 -34
216 10 110 70 117 231 13 317 -38 31 -182 82 -306 108 -88 19 -288 28 -345 16z"/>
<path d="M1046 3143 c-236 -50 -451 -229 -540 -449 -176 -433 87 -923 546
-1018 246 -51 499 26 677 207 138 140 205 289 218 487 27 425 -325 794 -754
789 -43 0 -109 -7 -147 -16z m308 -422 c75 -37 128 -91 165 -170 22 -47 26
-70 26 -141 0 -76 -4 -93 -33 -152 -38 -77 -92 -130 -171 -167 -47 -22 -70
-26 -141 -26 -71 0 -94 4 -140 26 -82 39 -135 90 -172 167 -29 59 -33 76 -33
152 0 71 4 94 26 140 87 186 293 260 473 171z"/>
<path d="M3806 3143 c-236 -50 -451 -229 -540 -449 -176 -433 87 -923 546
-1018 246 -51 499 26 677 207 151 154 215 309 215 527 0 133 -13 201 -58 301
-79 175 -240 330 -412 398 -128 50 -295 63 -428 34z m308 -422 c75 -37 128
-91 165 -170 22 -47 26 -70 26 -141 0 -76 -4 -93 -33 -152 -38 -77 -92 -130
-171 -167 -47 -22 -70 -26 -141 -26 -71 0 -94 4 -141 26 -79 37 -133 90 -171
167 -29 59 -33 76 -33 152 0 71 4 94 26 140 87 186 293 260 473 171z"/>
<path d="M918 1285 c-441 -74 -796 -416 -895 -860 -8 -38 -16 -120 -17 -181
-1 -104 1 -113 26 -151 41 -63 90 -88 169 -88 54 0 72 5 106 27 63 41 83 83
93 191 16 164 41 241 115 357 102 158 260 267 445 306 86 18 354 18 440 0 186
-39 343 -148 445 -306 75 -117 99 -193 115 -358 10 -108 33 -154 97 -193 57
-36 154 -34 210 3 22 15 51 44 64 65 22 35 24 48 22 153 -2 191 -61 378 -172
547 -177 267 -432 435 -745 488 -109 19 -407 19 -518 0z"/>
<path d="M3678 1285 c-441 -74 -796 -416 -895 -860 -8 -38 -16 -120 -17 -181
-1 -104 1 -113 26 -151 41 -63 90 -88 169 -88 54 0 72 5 106 27 63 41 83 83
93 191 16 164 41 241 115 357 102 158 260 267 445 306 86 18 354 18 440 0 216
-46 390 -182 490 -384 37 -75 58 -160 70 -278 10 -110 33 -155 97 -195 57 -36
154 -34 210 3 22 15 51 44 64 65 22 35 24 48 22 153 -2 191 -61 378 -172 547
-177 267 -432 435 -745 488 -109 19 -407 19 -518 0z"/>
</g>
</svg>
